<?xml version="1.0" encoding="UTF-8" standalone="no"?>
<!-- Created with Inkscape (http://www.inkscape.org/) -->

<svg
   xmlns:dc="http://purl.org/dc/elements/1.1/"
   xmlns:cc="http://creativecommons.org/ns#"
   xmlns:rdf="http://www.w3.org/1999/02/22-rdf-syntax-ns#"
   xmlns:svg="http://www.w3.org/2000/svg"
   xmlns="http://www.w3.org/2000/svg"
   xmlns:sodipodi="http://sodipodi.sourceforge.net/DTD/sodipodi-0.dtd"
   xmlns:inkscape="http://www.inkscape.org/namespaces/inkscape"
   width="2735.2341"
   height="1345.9263"
   id="svg11164"
   version="1.1"
   inkscape:version="0.48.3.1 r9886"
   sodipodi:docname="New document 12">
  <defs
     id="defs11166" />
  <sodipodi:namedview
     id="base"
     pagecolor="#ffffff"
     bordercolor="#666666"
     borderopacity="1.0"
     inkscape:pageopacity="0.0"
     inkscape:pageshadow="2"
     inkscape:zoom="0.24748737"
     inkscape:cx="2815.4383"
     inkscape:cy="-203.11522"
     inkscape:document-units="px"
     inkscape:current-layer="layer1"
     showgrid="false"
     fit-margin-top="0"
     fit-margin-left="0"
     fit-margin-right="0"
     fit-margin-bottom="0"
     inkscape:window-width="1920"
     inkscape:window-height="1056"
     inkscape:window-x="0"
     inkscape:window-y="24"
     inkscape:window-maximized="1" />
  <metadata
     id="metadata11169">
    <rdf:RDF>
      <cc:Work
         rdf:about="">
        <dc:format>image/svg+xml</dc:format>
        <dc:type
           rdf:resource="http://purl.org/dc/dcmitype/StillImage" />
        <dc:title></dc:title>
      </cc:Work>
    </rdf:RDF>
  </metadata>
  <g
     inkscape:label="Layer 1"
     inkscape:groupmode="layer"
     id="layer1"
     transform="translate(1941.9027,997.74379)">
    <g
       transform="matrix(0.00986509,0,0,0.00986509,-3907.5798,448.56405)"
       style="fill-rule:evenodd"
       id="g11145">
      <path
         style="fill:#fe0505"
         d="m 200693.08,-10300.282 c -109.53,-89.701 -205.2,-570.821 -327.52,-1647.223 -182.69,-1607.669 -1083,-9080.047 -1104.97,-9171.015 -38.65,-160.049 167.75,-1473.975 334.83,-2131.465 686.79,-2702.752 1740.97,-4196.717 6168.3,-8741.632 4374.98,-4491.169 36842.79,-34429.558 55713.82,-51373.392 17844.05,-16021.74 35640.95,-31364.131 43689.4,-37663.841 4084,-3196.63 4617.18,-3479.73 8666.92,-4601.74 2638.05,-730.88 3810.46,-1262.6 4865.65,-2206.67 710.61,-635.79 982.15,-784.58 1160.98,-636.16 441.66,366.55 208.2,1421.57 -622.91,2814.95 -843.32,1413.85 -1823.69,3436.93 -2346.5,4842.23 -771.58,2073.98 -1834.36,5891.78 -2201,7906.67 -91.32,501.77 -278.94,1436.89 -416.94,2078.04 -1240.63,5763.64 -3622.78,18462.849 -5656.91,30156.838 -252.14,1449.555 -660.95,3798.748 -908.46,5220.428 -247.52,1421.679 -683.11,3930.526 -967.98,5575.214 -284.88,1644.688 -673.87,3879.842 -864.42,4967.009 -1575.34,8987.648 -3056.39,19741.114 -3163.31,22967.927 -91.74,2768.722 272.07,4826.584 1183.06,6691.717 580.18,1187.834 1221.73,1948.395 2157.03,2557.168 748.57,487.243 1525.65,714.712 2722.84,797.043 1112.67,76.532 2053.68,-59.645 4720.1,-683.025 2173.18,-508.074 2936.65,-599.923 3156.79,-379.783 196.91,196.906 140.65,456.904 -148,683.957 -297.16,233.743 -307.6,237.048 -4646.68,1469.302 -1672.57,474.998 -3976.14,1140.263 -5119.06,1478.374 -2479.69,733.577 -5405.7,1522.987 -8109.41,2187.836 -2481.63,610.253 -3373.82,654.469 -4276.7,211.939 -651.89,-319.51 -1409.92,-1089.407 -1823.05,-1851.579 -355.72,-656.274 -816.44,-2038.643 -751.68,-2255.397 57.58,-192.71 506.88,-3017.357 1276.77,-8026.758 287.04,-1867.697 699.07,-4490.582 915.62,-5828.633 1563.03,-9657.954 2056.74,-13165.033 2062.02,-14647.609 4.26,-1202.277 -12.64,-1310.223 -331.12,-2110.223 -592.35,-1488.009 -1844.23,-3096.749 -3209.23,-4124.088 -1693.44,-1274.511 -4387.01,-2369.46 -6589.05,-2678.47 -2828.17,-396.874 -6101.87,-511.619 -17481.1,-612.721 -11598.25,-103.048 -15344.48,-218.69 -18347.52,-566.367 l -456.16,-52.811 -2280.77,2098.388 c -14965.5,13768.793 -26978.34,26367.947 -36307.94,38080.053 -6772.44,8501.928 -8239.77,11272.962 -9103.23,17191.376 -116.97,801.726 -277.5,1583.067 -356.74,1736.304 -207.52,401.294 -580.5,519.631 -875.77,277.839 z m 96813.05,-59270.62 c 276.26,-147.848 570.81,-936.934 857.46,-2297.068 444.6,-2109.619 1470.66,-7708.592 2654.2,-14483.304 194.78,-1115.043 463.76,-2643.159 597.71,-3395.813 133.95,-752.654 452.43,-2554.462 707.75,-4004.017 255.31,-1449.556 553.62,-3137.325 662.89,-3750.599 109.26,-613.273 357.62,-2027.351 551.9,-3142.397 1126.79,-6467.25 2344.37,-13242.31 2701.13,-15030.05 225.56,-1130.25 395.89,-2197.61 378.51,-2371.91 -47.08,-472.26 -280.16,-567.86 -807.78,-331.34 -519.27,232.77 -2236.42,1470.64 -3789.85,2732.04 -3607.84,2929.6 -16883.12,14048.49 -22744.82,19050.226 -10645.84,9083.988 -18443.7,16254.686 -22699.36,20873.689 -1757.54,1907.594 -1774.9,1930.606 -1695.38,2247.424 91.92,366.259 730.08,953.084 1340.23,1232.418 689.03,315.449 2547.95,785.28 3899.97,985.698 2852.23,422.802 4340.8,474.173 16409.92,566.319 11683.38,89.199 15057.37,177.866 17109.44,449.624 861.59,114.1 2326.19,451.027 3113.39,716.227 208.07,70.1 576.75,46.997 752.69,-47.167 z"
         id="path11133"
         inkscape:connector-curvature="0" />
      <path
         sodipodi:nodetypes="cccccsssssssssssssscsssssccccssssssssssssssssscc"
         style="fill:#0065cb"
         d="m 425895.67,-18393.243 c -11748.67,-619.721 -22066.5,-3171.618 -34338.79,-8492.947 l -482.03,-209.02 25.88,-9202.469 25.88,-9202.479 456.15,-28.414 c 437.31,-27.237 502.21,8.515 1571.2,865.851 8825.8,7078.272 21063.83,11997.294 33501.97,13465.988 1855.44,219.086 7777.02,306.92 9962.64,147.773 5676.67,-413.346 10119.66,-1464.953 13909.41,-3292.204 5974.6,-2880.693 9370.1,-6897.716 10460.64,-12375.405 144.74,-726.987 181.17,-1406.495 179.33,-3345.128 -2.64,-2785.854 -173.05,-4059.763 -802.12,-5995.912 -650.59,-2002.406 -1366.27,-3184.362 -2786.3,-4601.583 -1501.82,-1498.847 -3593.84,-2799.876 -6339.79,-3942.707 -3059.18,-1273.196 -8973.11,-2729.755 -15055.27,-3707.998 -13238.67,-2129.287 -17507.56,-3000.147 -22199.49,-4528.73 -9377.96,-3055.245 -15706.33,-7880.373 -19141.58,-14594.692 -1426.6,-2788.343 -2332.81,-5832.844 -2824.45,-9488.961 -251.4,-1869.633 -249.15,-6905.59 3.86,-8536.77 942.48,-6077.3 3259.36,-10783.26 7444.11,-15120.28 5784.46,-5994.92 13947.39,-10059.35 23378.33,-11640.38 3672.42,-615.66 6282.15,-808.95 10940.47,-810.31 9823.31,-2.87 17489.69,1051.76 26980.41,3711.59 2413.35,676.36 7138.48,2278.87 9325.81,3162.82 l 1925.99,778.33 0,8666.68 0,8666.67 -464.75,30.21 c -443.88,28.86 -510.77,-5.85 -1489.81,-773.13 -2678.96,-2099.53 -6195.17,-4185.29 -9652.03,-5725.44 -7382.64,-3289.23 -14785.15,-5162.63 -22706.32,-5746.44 -1775.83,-130.88 -6700.17,-130.11 -8373.45,1.32 -6890.63,541.22 -12312.5,2468.95 -16565.24,5889.73 -3080.3,2477.7 -4962.13,5622.93 -5538.83,9257.4 -224.23,1413.21 -142.09,4723.05 156.47,6304.22 968.11,5127.209 3747.1,8466.085 8932.5,10732.138 3842.8,1679.33 7371.38,2487.137 21692.65,4966.146 14429.29,2497.708 21417.18,4719.631 27419.92,8718.636 1826.8,1217.017 2875.03,2064.615 4261.33,3445.731 1775.18,1768.537 2908.09,3326.225 3997.78,5496.767 1585.54,3158.203 2427.92,6506.249 2748.7,10924.773 264.91,3648.998 -106.19,7293.567 -1087.63,10681.28 -929.08,3206.954 -3038.6,7437.599 -4981.79,9990.946 -4226.42,5553.511 -10474.07,9828.049 -18623.01,12741.554 -3980.1,1423.008 -8899.85,2344.428 -14528.97,2721.131 -1767.69,118.285 -9034.52,114.251 -11319.75,-6.285 z"
         id="path11135"
         inkscape:connector-curvature="0" />
      <path
         sodipodi:nodetypes="cssssscccccccccssccscccsscccsscccsscscscsccsccccsscsccscccssscccccccccccsccccsccscccscccsccsscccssscsccscscssscscsscssccsscscscscsscscscscscscccccssscccssscccccccccscccccsccssssssscscssssscccsccscccsssssccsccsssscsssscsccccccccscccccscccccccccscscccccccccsccccccccsccscccssssccssccssccsssscccsscssscscsscscscsscsssscsccccccsscccccccscccscccscscccccsccsscscscccsssssscsssss"
         style="fill:#53c921"
         d="m 333017.67,-15004.983 c -69.69,-28.119 -126.71,-117.181 -126.71,-197.91 0,-80.729 -68.42,-173.044 -152.05,-205.137 -83.63,-32.093 -152.05,-147.52 -152.05,-256.511 0,-108.99 -115.89,-443.118 -257.52,-742.507 -232.29,-491.024 -261.47,-693.932 -297.92,-2071.445 -22.23,-839.891 -65.07,-1567.011 -95.23,-1615.799 -30.16,-48.798 -100.41,-858.613 -156.14,-1799.598 -55.71,-940.985 -122.81,-2053.919 -149.12,-2473.195 -26.29,-419.277 -8.61,-825.801 39.39,-903.408 55.42,-89.67 32.2,-196.086 -63.73,-292.01 -112.97,-112.984 -145.4,-357.351 -128.96,-971.901 12.09,-451.532 -3.34,-889.389 -34.18,-973.017 -61.31,-166.05 -206.39,-3339.543 -234.01,-5119.061 -9.53,-613.273 -42.47,-1183.466 -73.21,-1267.094 -30.76,-83.628 -78.27,-653.82 -105.6,-1267.094 -27.33,-613.274 -121.84,-2706.736 -210.04,-4652.131 -121.21,-2673.356 -131.86,-3571.432 -43.63,-3677.736 90.01,-108.453 79.83,-168.949 -44.43,-264.204 -171.17,-131.21 -178.96,-335.405 -480.8,-12591.743 -59.05,-2397.343 -150.8,-4498.889 -203.89,-4670.104 -128.92,-415.714 -124.64,-3856.284 5.07,-4098.7 64.33,-120.204 65.98,-211.957 4.46,-249.955 -158.46,-97.937 -137.49,-19713.298 21.14,-19774.02 96.68,-37.008 118.9,-574.137 95.14,-2299.932 -27.26,-1979.221 -11.19,-2266.138 132.77,-2371.406 105.32,-77.009 125.44,-143.459 56.34,-186.156 -107.91,-66.698 -162.06,-3817.975 -56.63,-3923.409 58.41,-58.406 124.63,-2233.941 204.55,-6719.904 45.3,-2542.33 83.85,-3169.23 203.01,-3300.9 98.1,-108.4 113.31,-196.3 45.66,-263.94 -137.06,-137.06 70.56,-4892.75 221.53,-5074.68 79.9,-96.27 76.86,-172.99 -11.05,-278.91 -111.66,-134.55 -73.71,-1565.68 52.03,-1962.04 22.94,-72.31 64.14,-1024.42 91.56,-2115.79 27.42,-1091.37 96.45,-2446.28 153.41,-3010.91 56.95,-564.63 126.96,-1802.06 155.58,-2749.85 28.62,-947.79 74.55,-1996.94 102.07,-2331.45 91.17,-1107.96 350,-5230.39 502.8,-8008.04 82.81,-1505.31 173.97,-2850.96 202.56,-2990.34 28.61,-139.38 74.75,-846.42 102.53,-1571.2 100.04,-2609.6 154.74,-3519.27 217.71,-3621.17 35.24,-57 55.08,-511.91 44.12,-1010.91 -12.08,-549.62 24.78,-961.15 93.51,-1043.96 83.81,-100.98 83.09,-185.32 -2.74,-322.74 -84.65,-135.54 -88.68,-405.98 -14.87,-996.28 55.73,-445.63 123.91,-1419.48 151.53,-2164.11 28.78,-776.17 97.52,-1401.19 161.1,-1464.76 61.06,-60.99 110.97,-193 110.97,-293.35 0,-100.36 48.68,-182.46 108.2,-182.46 61.28,0 80.89,-86.04 45.21,-198.47 -102.37,-322.5 180.78,-725.44 616.32,-877.05 532.13,-185.23 1018.35,-179.58 1092.12,12.68 32.41,84.47 174.14,197.37 314.95,250.91 143.07,54.39 256.02,177.94 256.02,280.03 0,100.47 73.75,287.99 163.9,416.69 109.14,155.83 145.24,348.99 108.03,578.22 -31.48,194.04 -9.22,373.06 51.13,410.33 74.28,45.91 86.65,1743.61 40.48,5551.73 -141.38,11659.17 -96.68,17170.45 145.56,17953.82 51.72,167.26 140.73,1125.18 197.8,2128.72 57.07,1003.54 151.15,2235.15 209.06,2736.92 57.92,501.77 79.52,1056.33 47.99,1232.36 -34.65,193.49 -12.61,334.96 55.73,357.74 111.22,37.07 140,242.72 259.82,1856.4 33.11,446.01 104.92,866.09 159.57,933.49 54.66,67.41 69.86,256.93 33.79,421.17 -39.94,181.83 -20.42,326.52 49.93,369.99 66.82,41.3 88.85,177.65 52.25,323.45 -34.79,138.63 -10.29,315.88 54.44,393.87 64.73,78 93.78,233.25 64.56,344.99 -29.22,111.75 -16.07,226.08 29.22,254.07 45.3,28 114.69,290.33 154.21,582.97 39.52,292.64 108.84,602.6 154.05,688.8 45.22,86.2 109.21,538.67 142.2,1005.48 33,466.8 108.72,907.45 168.27,979.2 59.56,71.76 77.62,180.09 40.14,240.72 -37.47,60.64 -14.35,175.06 51.39,254.27 65.73,79.2 128.4,316.78 139.26,527.93 10.84,211.16 54.32,439.89 96.59,508.28 42.27,68.4 91.18,284.02 108.69,479.16 17.51,195.13 84,417.63 147.75,494.44 131.17,158.06 321.77,954.37 355.79,1486.52 12.48,195.13 79.09,457.42 148.03,582.86 68.96,125.45 99.9,228.08 68.77,228.08 -31.12,0 10.59,102.64 92.68,228.08 82.1,125.44 180.38,422.95 218.39,661.13 38.02,238.19 108.75,457.55 157.18,487.48 48.42,29.93 88.05,182.99 88.05,340.13 0,157.14 71.35,344.929 158.57,417.308 93.75,77.812 136.59,219.135 104.81,345.77 -29.57,117.793 13.12,343.065 94.85,500.604 81.73,157.54 148.6,342.636 148.6,411.326 0,164.874 295.24,770.131 480.92,985.933 80.93,94.052 120.38,214.326 87.66,267.274 -32.74,52.949 10.49,154.362 96.04,225.364 85.56,71.001 133.38,186.873 106.28,257.493 -27.1,70.619 16.44,182.934 96.75,249.59 80.31,66.655 146.03,274.873 146.03,462.706 0,237.8 64.19,380.257 211.36,469.084 278.01,167.79 700.95,1003.795 700.95,1385.545 0,169.318 77.85,359.85 177.39,434.182 97.57,72.851 244.42,269.303 326.34,436.56 81.93,167.256 271.23,464.561 420.68,660.677 149.45,196.116 287.69,466.362 307.2,600.547 19.63,134.937 159.6,315.35 313.2,403.682 339.71,195.359 1113.66,1220.872 1048.85,1389.768 -53.88,140.407 310.95,565.101 633.94,737.958 120.4,64.434 218.89,169.326 218.89,233.096 0,128.606 686.05,789.229 819.6,789.229 46.5,0 253.36,182.462 459.69,405.471 206.34,223.008 432.94,405.47 503.58,405.47 70.62,0 224.71,122.432 342.42,272.071 254.71,323.823 846.23,741.604 1050,741.604 79.76,0 201.8,68.423 271.21,152.051 69.41,83.628 200.43,152.159 291.17,152.291 90.74,0.101 575.52,176.297 1077.29,391.478 1929.96,827.651 4049.47,1193.403 6375.34,1100.157 1425,-57.13 3177.99,-361.724 4217.57,-732.828 250.88,-89.562 683.34,-206.567 961,-260.013 296.74,-57.115 659.94,-221.797 881.03,-399.472 206.89,-166.263 444.99,-302.297 529.13,-302.297 84.12,0 189.43,-60.985 234.01,-135.525 122.41,-204.627 1169.17,-878.15 1364.8,-878.15 94.26,0 261.09,-114.038 370.72,-253.419 109.64,-139.38 248.19,-253.418 307.89,-253.418 59.71,0 157.38,-91.231 217.06,-202.736 59.67,-111.504 176.3,-202.735 259.16,-202.735 82.86,0 200.33,-109.008 261.03,-242.241 60.71,-133.232 219.38,-291.908 352.61,-352.613 133.23,-60.705 242.24,-176.053 242.24,-256.329 0,-80.277 148.25,-238.746 329.45,-352.154 373.2,-233.587 886.96,-844.2 886.96,-1054.173 0,-218.003 682.56,-1123.836 910.32,-1208.087 112.54,-41.633 317.33,-322.43 455.59,-624.696 138.13,-301.989 323.8,-576.951 412.6,-611.026 105.85,-40.62 139.91,-129.818 98.91,-259.017 -43.36,-136.637 1.12,-231.129 145.06,-308.168 114.19,-61.11 207.61,-200.347 207.61,-309.417 0,-109.071 91.23,-255.284 202.73,-324.92 124.12,-77.511 202.74,-236.392 202.74,-409.699 0,-375.742 451.95,-1253.513 718.99,-1396.431 145.48,-77.863 195.47,-178.517 158.62,-319.423 -29.59,-113.155 -15.99,-280.307 30.23,-371.45 46.21,-91.141 133.89,-279.751 194.86,-419.131 60.96,-139.38 210.31,-377.115 331.9,-528.298 134.22,-166.893 217.35,-405.829 211.6,-608.205 -10.5,-369.662 223.7,-1014.633 503.27,-1386.014 100.09,-132.961 181.98,-389.664 181.98,-570.454 0,-180.78 63.71,-381.58 141.59,-446.21 77.87,-64.63 120.27,-198.99 94.23,-298.58 -53.56,-204.83 339.98,-1502.73 482.32,-1590.7 51.04,-31.54 92.8,-216.58 92.8,-411.19 0,-194.61 62.14,-477.01 138.09,-627.56 75.95,-150.55 162.47,-464.85 192.27,-698.45 29.8,-233.6 129.13,-574.95 220.73,-758.56 91.59,-183.61 194,-596.68 227.59,-917.93 33.57,-321.25 122.03,-634.71 196.58,-696.57 98.16,-81.48 107.36,-165.11 33.35,-303.39 -75.94,-141.89 -50.86,-297.13 97.66,-604.51 109.9,-227.47 176.7,-473.83 148.45,-547.45 -28.25,-73.63 23.58,-469.64 115.17,-880.03 91.6,-410.39 162.55,-867.54 157.66,-1015.89 -4.87,-148.36 41.82,-399.24 103.79,-557.52 61.97,-158.29 127.8,-537.08 146.3,-841.77 41.3,-680.13 256.15,-1846.34 362.87,-1969.65 43.23,-49.94 52.84,-219.59 21.36,-377 -31.49,-157.41 -22.32,-367.43 20.34,-466.71 42.68,-99.29 94.17,-545.45 114.44,-991.46 20.26,-446.02 66.32,-879.37 102.35,-963 36.03,-83.62 75.92,-425.74 88.64,-760.25 47.24,-1242.14 243.32,-3013.06 347.51,-3138.61 64.15,-77.29 74.43,-219.5 25.45,-351.89 -45.21,-122.21 -50.11,-527.22 -10.9,-900.04 39.21,-372.81 103.97,-1635.76 143.92,-2806.56 39.95,-1170.79 96.63,-2169.68 125.96,-2219.75 29.33,-50.07 67.8,-551.84 85.49,-1115.04 39.59,-1260.08 68.15,-1543.41 165.4,-1640.66 41.82,-41.82 76.03,-176.31 76.03,-298.88 0,-261.51 361.63,-757.03 552.46,-757.03 72.76,0 189.07,-68.43 258.48,-152.06 326.01,-392.82 1317.78,102.45 1317.78,658.07 0,161.13 45.61,321.15 101.36,355.61 55.76,34.46 101.37,164.87 101.37,289.81 0,124.94 44.94,272.1 99.87,327.03 86.59,86.59 265.76,1527.95 282.44,2272.13 17.11,763.44 125.25,2426.83 217.92,3351.76 104.26,1040.71 313.85,4400.9 365.17,5854.55 14.41,408.16 57.82,1037.46 96.49,1398.44 48.88,456.41 33.02,701.22 -52.06,803.74 -82.73,99.68 -89.64,188.44 -21.37,274.12 155.24,194.81 292.48,1976.5 380.66,4941.67 100.16,3368.45 141.45,4260.7 201.64,4358.1 33.24,53.77 62.69,634.71 65.46,1290.99 5.17,1234.49 12.74,1414.77 194.34,4655.711 88.29,1575.713 83.66,1982.562 -24.6,2157.153 -106.75,172.186 -107.89,231.059 -5.67,294.688 91.74,57.132 141.82,591.261 177.94,1897.548 27.63,999.918 70.36,2536.854 94.93,3415.412 24.57,878.559 73.22,1643.56 108.1,1700.004 34.88,56.443 52.88,938.164 40,1959.38 -12.89,1021.215 6.59,1905.332 43.29,1964.703 36.7,59.372 63.07,1410.809 58.62,3003.194 -4.46,1592.383 15.33,2933.134 43.96,2979.445 85.06,137.65 294.78,8325.179 218.12,8515.991 -38.73,96.41 -63.41,988.501 -54.83,1982.422 10.55,1222.496 -21.69,1852.063 -99.68,1946.018 -68.69,82.776 -80.75,200.543 -29.85,291.503 46.98,83.939 54.87,690.731 17.56,1348.427 -37.31,657.697 -94.12,3111.658 -126.24,5453.248 -32.12,2341.59 -104.42,5215.359 -160.67,6386.154 -56.26,1170.795 -148.85,3605.015 -205.75,5409.387 -56.91,1804.363 -125.29,3315.976 -151.96,3359.138 -26.68,43.162 -70.87,1189.741 -98.22,2547.964 -27.35,1358.224 -95.51,3016.881 -151.47,3685.906 -55.96,669.026 -102.47,1828.63 -103.35,2576.895 -1.32,1129.143 -30.49,1392.404 -171.53,1548.247 -130.27,143.942 -142.1,215.598 -50.69,307.012 175.1,175.102 156.59,1712.128 -23.58,1958.532 -87.78,120.05 -110.62,255.487 -59.27,351.441 95.59,178.61 -154.85,5514.87 -267.35,5696.916 -40.69,65.828 -62.79,539.549 -49.11,1052.712 14.65,549.341 -17.41,959.16 -77.96,996.575 -60.52,37.415 -78.61,268.087 -43.95,560.684 32.38,273.419 -4.16,1104.633 -81.14,1847.14 -77,742.496 -132.28,1441.233 -122.83,1552.737 38.17,450.326 -178.51,3040.165 -261.29,3122.941 -48.88,48.88 -64.99,266.932 -35.8,484.557 75.32,561.536 -150.93,1287.561 -465.45,1493.641 -142.2,93.177 -361.29,272.172 -486.9,397.766 -323.85,323.849 -819.76,310.002 -947.68,-26.457 -53.28,-140.161 -250.26,-408.207 -437.73,-595.666 -318.77,-318.78 -345.68,-399.084 -415.58,-1240.353 -41.12,-494.724 -94.29,-1714.166 -118.16,-2709.858 -23.87,-995.703 -70.24,-1853.769 -103.02,-1906.815 -32.79,-53.056 -44.65,-515.626 -26.36,-1027.938 18.3,-512.311 3.96,-977.538 -31.81,-1033.837 -35.8,-56.3 -95.16,-558.069 -131.91,-1115.043 -36.76,-556.974 -88.98,-1090.786 -116.06,-1186.243 -27.06,-95.468 3.65,-272.324 68.23,-393.023 90.1,-168.341 88.8,-237.169 -5.57,-295.496 -79.23,-48.961 -108.38,-251.878 -81.85,-569.969 26.57,-318.67 -3.85,-529.899 -85.78,-595.302 -79.25,-63.293 -146.63,-482.154 -179.35,-1115.042 -28.82,-557.522 -100.14,-1268.331 -158.45,-1579.58 -58.33,-311.239 -116.55,-904.239 -129.39,-1317.778 -12.84,-413.529 -61.99,-780.125 -109.24,-814.64 -84.07,-61.429 -124.2,-328.867 -233.95,-1559.114 -29.85,-334.513 -99.37,-663.116 -154.48,-730.221 -82.49,-100.425 -168.44,-774.094 -197.84,-1550.549 -3.14,-83.628 -74.3,-305.075 -158.07,-492.098 -83.78,-187.034 -128.94,-460.726 -100.35,-608.206 30.6,-157.809 -8.11,-335.171 -94.12,-430.994 -80.35,-89.569 -149.35,-340.453 -153.34,-557.522 -3.95,-217.078 -74.45,-545.154 -156.6,-729.055 -82.16,-183.901 -165.72,-602.468 -185.71,-930.149 -20.18,-330.802 -112.43,-711.904 -207.41,-856.88 -94.1,-143.607 -147.68,-350.569 -119.09,-459.924 28.6,-109.356 -9.53,-249.851 -84.62,-312.212 -75.14,-62.362 -164.75,-326.323 -199.13,-586.594 -83.39,-631.348 -431.89,-1815.878 -556.99,-1893.191 -55,-33.988 -101.46,-161.752 -103.23,-283.9 -1.73,-122.158 -70.2,-310.641 -152.05,-418.861 -81.86,-108.23 -150.81,-381.922 -153.23,-608.205 -2.64,-250.499 -100.77,-570.05 -250.78,-816.911 -507.98,-835.968 -573.91,-996.149 -530.82,-1289.76 31.48,-214.433 -9.12,-333.164 -142.51,-416.448 -102.59,-64.064 -186.53,-220.991 -186.53,-348.704 0,-127.723 -64.25,-256.876 -142.77,-287.002 -179.73,-68.971 -404.89,-598.575 -333.54,-784.514 54.59,-142.289 -448.23,-1114.637 -636.63,-1231.068 -56.91,-35.175 -103.48,-147.611 -103.48,-249.861 0,-102.249 -68.42,-212.162 -152.05,-244.255 -83.63,-32.093 -152.05,-134.383 -152.05,-227.296 0,-92.924 -116.6,-277.018 -259.12,-409.1 -142.52,-132.081 -234.25,-280.402 -203.85,-329.586 30.4,-49.194 -12.65,-145.807 -95.67,-214.696 -83.01,-68.9 -150.93,-169.801 -150.93,-224.235 0,-54.435 -137.07,-227.013 -304.59,-383.504 -181.16,-169.233 -281.13,-345.647 -246.71,-435.362 82.77,-215.692 -461.77,-954.788 -791.55,-1074.355 -153.16,-55.534 -335.63,-228.203 -405.47,-383.71 -69.84,-155.506 -195.4,-356.779 -279.03,-447.274 -83.63,-90.494 -279.52,-330.71 -435.32,-533.813 -155.82,-203.103 -463.72,-461.327 -684.24,-573.83 -220.56,-112.503 -401,-252.749 -401,-311.657 0,-162.95 -571.92,-699.715 -745.55,-699.715 -84.12,0 -246.77,-131.76 -361.44,-292.801 -231.63,-325.302 -1104.62,-923.609 -1347.63,-923.609 -85.86,0 -208.78,-63.461 -273.14,-141.025 -64.38,-77.563 -241.03,-164.582 -392.55,-193.373 -151.52,-28.793 -678.96,-220.442 -1172.07,-425.888 -493.13,-205.447 -1428.24,-508.644 -2078.04,-673.773 -1010.76,-256.857 -1467.03,-311.627 -3158.12,-379.098 -1087.17,-43.376 -2020,-40.891 -2072.97,5.525 -52.96,46.413 -241.33,84.387 -418.6,84.387 -478.86,0 -2665.57,572.704 -3499.09,916.42 -400.12,164.995 -806.86,299.99 -903.87,299.99 -97,0 -233.16,68.423 -302.57,152.052 -69.4,83.628 -236.07,152.051 -370.37,152.051 -134.31,0 -271.29,70.607 -304.4,156.904 -75.4,196.464 -1185.32,958.136 -1396.23,958.136 -292.61,0 -2896.01,2558.629 -2896.01,2846.215 0,116.552 -99.4,237.621 -238.52,290.516 -366.83,139.468 -977.89,909.913 -977.89,1232.962 0,176.329 -92.96,351.631 -253.42,477.834 -139.38,109.639 -253.41,274.037 -253.41,365.329 0,91.291 -68.43,192.243 -152.06,224.336 -83.62,32.093 -152.05,112.204 -152.05,178.042 0,65.828 -134.99,277.625 -299.98,470.649 -164.99,193.025 -301.84,455.019 -304.11,582.215 -2.23,127.186 -72.53,257.514 -156.16,289.607 -83.63,32.093 -152.05,160.495 -152.05,285.35 0,270.175 -241.38,793.363 -571.96,1239.715 -131.44,177.474 -238.98,434.177 -238.98,570.445 0,136.279 -68.43,304.559 -152.06,373.965 -83.62,69.407 -152.05,202.715 -152.05,296.237 0,93.532 -52.96,223.019 -117.7,287.752 -64.73,64.733 -131.17,244.073 -147.64,398.536 -16.46,154.454 -109.32,338.882 -206.34,409.829 -236.13,172.66 -541.81,1000.569 -541.91,1467.711 -0.1,274.057 -55.85,406.403 -204.93,486.189 -153.84,82.341 -201.33,203.07 -190.78,485.064 15.54,415.06 -243.18,1409.576 -410.11,1576.509 -58.61,58.61 -106.57,251.513 -106.57,428.673 0,177.15 -71.35,381.314 -158.57,453.7 -95.5,79.25 -136.68,218.782 -103.55,350.803 30.26,120.567 -10.97,306.414 -91.62,412.992 -80.66,106.578 -148.1,362.145 -149.87,567.932 -1.73,205.776 -52.82,404.791 -113.42,442.246 -60.61,37.465 -86.49,158.782 -57.51,269.607 53.86,205.959 -110.23,686.948 -274.04,803.307 -50.08,35.58 -58.49,117.404 -18.67,181.833 39.82,64.43 22.31,177.485 -38.89,251.24 -61.22,73.755 -100.11,220.008 -86.43,325.004 40.52,311.097 -130.21,1348.604 -232.3,1411.706 -51.85,32.042 -94.28,268.644 -94.28,525.793 0,290.834 -62.74,536.873 -166.04,651.003 -126.72,140.029 -138.73,216.379 -50.72,322.419 110.28,132.883 87.02,276.916 -158.24,979.9 -29.18,83.628 -64.85,406.261 -79.27,716.972 -14.42,310.702 -78.87,663.279 -143.22,783.511 -64.33,120.232 -90.14,325.562 -57.33,456.285 37,147.419 3.35,284.417 -88.65,360.747 -117.88,97.84 -125.68,182.979 -38.04,415.171 85.63,226.851 78.91,329.86 -30.12,461.222 -82.53,99.442 -129.53,345.167 -114.08,596.386 27.54,447.943 -157.74,2131.658 -263.36,2393.125 -33.77,83.629 -49.92,363.677 -35.88,622.316 14.04,258.649 -21.61,499.397 -79.22,535.008 -62.71,38.753 -81.09,264.447 -45.83,562.225 32.41,273.621 23.48,580.258 -19.83,681.412 -43.31,101.155 -98.14,868.142 -121.84,1704.425 -29.7,1047.988 -86.08,1587.141 -181.41,1734.925 -93.02,144.216 -104.82,247.905 -36.03,316.693 62.14,62.138 80.6,455.444 47.05,1001.997 -30.37,494.846 -95.99,1789.218 -145.83,2876.385 -92.32,2013.778 -234.68,2815.757 -517.43,2914.814 -87,30.481 -281.05,185.38 -431.22,344.234 -263.57,278.781 -702.98,369.809 -1070.08,221.68 z m 21464.57,-77268.684 c -1633.38,-239.394 -3219.9,-822.342 -4491.29,-1650.282 -2545.02,-1657.327 -4032.44,-3999.218 -4190.21,-6597.311 -167.83,-2763.85 695.82,-4919.17 2734.04,-6823.05 1313.61,-1227.05 2737.98,-1999.1 4592.67,-2489.4 800.65,-211.66 1119.7,-237.4 2925.99,-236 1772.91,1.38 2133.87,29.96 2876.09,227.71 3127.21,833.23 5620.31,2861.03 6679.18,5432.63 520.27,1263.54 550.94,1406.15 602.78,2802.28 66.26,1784.606 -86.29,2579.571 -763.58,3978.848 -1555.57,3213.797 -5016.28,5279.8 -9039.68,5396.57 -752.66,21.844 -1619.35,2.95 -1925.99,-41.995 z"
         id="path11137"
         inkscape:connector-curvature="0" />
    </g>
  </g>
</svg>
